<?xml version="1.0" encoding="UTF-8"?>
<svg width="1220.0mm" height="580.0mm" viewBox="0 0 1220.0 580.0" xmlns="http://www.w3.org/2000/svg"><metadata>{"engine":"Motor Polifan Definitivo V1.7","source":"placa-sparrow.svg","plate_mm":[1220.0,580.0],"target_gap_used_mm":3.0,"scale":"1:1","piece_count":20}</metadata><g id="CORTE" fill="none" stroke="#000000"><g id="pieza_001" data-polifan-piece="1" data-source-id="p0" transform="matrix(1 0 0 1 3.055333 0)"><g data-industrial-piece="0" data-kit="auto-9-gato" data-instance="auto-9-gato-p0" data-partial-extra="0" transform="translate(252.98444 195.75323) rotate(-172.03615) translate(-0.002393044433624425 -0.22444866088859788) scale(1 1.0000000000000002) translate(-46.954566955566406 -33.14284133911133)"><g transform="matrix(1 0 0 1 0 0)"><path style="fill:none;stroke:#000000;stroke-width:0.615" d="M0,0 L95,0 L75,28 L95,55 L58,48 L42,82 L28,48 L0,55 L20,28 Z"/></g></g></g><g id="pieza_002" data-polifan-piece="1" data-source-id="p1" transform="matrix(1 0 0 1 3.055333 0)"><g data-industrial-piece="1" data-kit="auto-10-gato" data-instance="auto-10-gato-p0" data-partial-extra="0" transform="translate(430 40) rotate(12)"><g><path d="M0,0 C45,-10 90,8 105,44 C116,76 92,104 52,108 C18,111 -8,86 3,50 C10,29 22,15 0,0 Z"/></g></g></g><g id="pieza_003" data-polifan-piece="1" data-source-id="p2"><g data-industrial-piece="2" data-kit="auto-11-gato" data-instance="auto-11-gato-p0" transform="translate(580 40) rotate(83)"><g><path d="M0,0 L105,0 L105,28 L35,28 L35,95 L0,95 Z"/></g></g></g><g id="pieza_004" data-polifan-piece="1" data-source-id="p3"><g data-industrial-piece="3" data-kit="auto-9-gato" data-instance="auto-9-gato-p1" transform="translate(710 40) rotate(4)"><g><path d="M0,0 L88,0 L88,24 L30,24 L30,72 L88,72 L88,96 L0,96 Z"/></g></g></g><g id="pieza_005" data-polifan-piece="1" data-source-id="p4"><g data-industrial-piece="4" data-kit="auto-10-gato" data-instance="auto-10-gato-p1" transform="translate(830 40) rotate(19)"><g><path d="M45,0 L56,32 L90,32 L62,52 L73,85 L45,65 L17,85 L28,52 L0,32 L34,32 Z"/></g></g></g><g id="pieza_006" data-polifan-piece="1" data-source-id="p5"><g data-industrial-piece="5" data-kit="mariposa" data-instance="mariposa-p0" transform="translate(960 40) rotate(47)"><g><path d="M50,45 C15,5 -10,20 10,55 C-8,80 18,100 50,62 C82,100 108,80 90,55 C110,20 85,5 50,45 Z"/></g></g></g><g id="pieza_007" data-polifan-piece="1" data-source-id="p6"><g data-industrial-piece="6" data-kit="manzana" data-instance="manzana-p0" transform="translate(1090 40) rotate(102)"><g><path d="M48,15 C20,-4 0,25 8,56 C15,92 42,108 60,100 C82,111 110,89 114,56 C119,25 88,-4 62,15 C64,5 72,-4 84,-8 C68,-9 56,-3 48,15 Z"/></g></g></g><g id="pieza_008" data-polifan-piece="1" data-source-id="p7"><g data-industrial-piece="7" data-kit="corazon" data-instance="corazon-p0" transform="translate(110 200) rotate(132)"><g><path d="M50,92 C15,64 -4,44 5,22 C14,0 42,3 50,21 C58,3 86,0 95,22 C104,44 85,64 50,92 Z"/></g></g></g><g id="pieza_009" data-polifan-piece="1" data-source-id="p8"><g data-industrial-piece="8" data-kit="mate" data-instance="mate-p0" transform="translate(240 210) rotate(176)"><g><path d="M15,20 L82,20 L75,95 C72,113 25,113 22,95 Z M48,20 L66,-5"/></g></g></g><g id="pieza_010" data-polifan-piece="1" data-source-id="p9"><g data-industrial-piece="9" data-kit="mate" data-instance="mate-p1" transform="translate(380 200) rotate(226)"><g><path d="M0,0 L96,0 L82,28 L96,60 L50,52 L30,95 L18,52 L0,60 L14,28 Z"/></g></g></g><g id="pieza_011" data-polifan-piece="1" data-source-id="p10"><g data-industrial-piece="10" data-kit="gato2" data-instance="gato2-p0" transform="translate(520 200) rotate(271)"><g><path d="M0,0 C40,-12 92,5 108,45 C118,79 88,108 49,108 C12,108 -10,80 2,48 C8,30 24,14 0,0 Z"/></g></g></g><g id="pieza_012" data-polifan-piece="1" data-source-id="p11"><g data-industrial-piece="11" data-kit="gato3" data-instance="gato3-p0" transform="translate(650 200) rotate(314)"><g><path d="M0,0 L110,0 L110,30 L36,30 L36,100 L0,100 Z"/></g></g></g><g id="pieza_013" data-polifan-piece="1" data-source-id="p12"><g data-industrial-piece="12" data-kit="mariposa2" data-instance="mariposa2-p0" transform="translate(790 200) rotate(18)"><g><path d="M52,47 C14,6 -12,22 9,58 C-10,83 19,104 52,65 C85,104 114,83 95,58 C116,22 90,6 52,47 Z"/></g></g></g><g id="pieza_014" data-polifan-piece="1" data-source-id="p13"><g data-industrial-piece="13" data-kit="estrella" data-instance="estrella-p0" transform="translate(930 200) rotate(64)"><g><path d="M48,0 L60,34 L96,34 L67,55 L78,90 L48,69 L18,90 L29,55 L0,34 L36,34 Z"/></g></g></g><g id="pieza_015" data-polifan-piece="1" data-source-id="p14"><g data-industrial-piece="14" data-kit="cshape" data-instance="cshape-p0" transform="translate(1070 200) rotate(121)"><g><path d="M0,0 L105,0 L105,26 L30,26 L30,74 L105,74 L105,100 L0,100 Z"/></g></g></g><g id="pieza_016" data-polifan-piece="1" data-source-id="p15"><g data-industrial-piece="15" data-kit="lshape" data-instance="lshape-p0" transform="translate(130 390) rotate(167)"><g><path d="M0,0 L100,0 L100,34 L34,34 L34,112 L0,112 Z"/></g></g></g><g id="pieza_017" data-polifan-piece="1" data-source-id="p16"><g data-industrial-piece="16" data-kit="poly" data-instance="poly-p0" transform="translate(300 390) rotate(205)"><g><path d="M0,15 L42,0 L95,25 L78,82 L22,76 Z"/></g></g></g><g id="pieza_018" data-polifan-piece="1" data-source-id="p17"><g data-industrial-piece="17" data-kit="corazon2" data-instance="corazon2-p0" transform="translate(470 390) rotate(249)"><g><path d="M50,92 C15,64 -4,44 5,22 C14,0 42,3 50,21 C58,3 86,0 95,22 C104,44 85,64 50,92 Z"/></g></g></g><g id="pieza_019" data-polifan-piece="1" data-source-id="p18"><g data-industrial-piece="18" data-kit="mate2" data-instance="mate2-p0" transform="translate(650 390) rotate(297)"><g><path d="M12,18 L84,18 L76,98 C73,116 25,116 21,98 Z"/></g></g></g><g id="pieza_020" data-polifan-piece="1" data-source-id="p19"><g data-industrial-piece="19" data-kit="manzana2" data-instance="manzana2-p0" transform="translate(840 390) rotate(343)"><g><path d="M48,15 C20,-4 0,25 8,56 C15,92 42,108 60,100 C82,111 110,89 114,56 C119,25 88,-4 62,15 C64,5 72,-4 84,-8 C68,-9 56,-3 48,15 Z"/></g></g></g></g></svg>